<mxfile host="app.diagrams.net" modified="2023-04-20T22:21:44.165Z" agent="Mozilla/5.0 (Macintosh; Intel Mac OS X 10_15_7) AppleWebKit/605.1.15 (KHTML, like Gecko) Version/16.3 Safari/605.1.15" etag="2Gge1oc3N6AbYZRnHBsc" version="21.2.1" type="github">
  <diagram name="Страница 1" id="YThbuevqKSkSl-h7DCAL">
    <mxGraphModel dx="951" dy="568" grid="1" gridSize="10" guides="1" tooltips="1" connect="1" arrows="1" fold="1" page="1" pageScale="1" pageWidth="827" pageHeight="1169" math="0" shadow="0">
      <root>
        <mxCell id="0" />
        <mxCell id="1" parent="0" />
        <mxCell id="pkJhzEHzip6oLuLhZJ2v-1" value="&lt;font style=&quot;font-size: 13px;&quot; face=&quot;Times New Roman&quot;&gt;Пользователь &lt;br&gt;приложения&lt;/font&gt;" style="shape=umlActor;verticalLabelPosition=bottom;verticalAlign=top;html=1;outlineConnect=0;" vertex="1" parent="1">
          <mxGeometry x="150" y="110" width="30" height="60" as="geometry" />
        </mxCell>
        <mxCell id="pkJhzEHzip6oLuLhZJ2v-2" value="Зарегистрированный&lt;br&gt;пользователь" style="shape=umlActor;verticalLabelPosition=bottom;verticalAlign=top;html=1;outlineConnect=0;" vertex="1" parent="1">
          <mxGeometry x="150" y="300" width="30" height="60" as="geometry" />
        </mxCell>
        <mxCell id="pkJhzEHzip6oLuLhZJ2v-4" value="" style="endArrow=block;endSize=16;endFill=0;html=1;rounded=0;exitX=0.5;exitY=0;exitDx=0;exitDy=0;exitPerimeter=0;" edge="1" parent="1" source="pkJhzEHzip6oLuLhZJ2v-2">
          <mxGeometry y="20" width="160" relative="1" as="geometry">
            <mxPoint x="80" y="290" as="sourcePoint" />
            <mxPoint x="165" y="210" as="targetPoint" />
            <mxPoint as="offset" />
          </mxGeometry>
        </mxCell>
        <mxCell id="pkJhzEHzip6oLuLhZJ2v-5" value="" style="swimlane;startSize=0;" vertex="1" parent="1">
          <mxGeometry x="230" y="40" width="300" height="430" as="geometry" />
        </mxCell>
        <mxCell id="pkJhzEHzip6oLuLhZJ2v-7" value="Вход" style="ellipse;whiteSpace=wrap;html=1;" vertex="1" parent="pkJhzEHzip6oLuLhZJ2v-5">
          <mxGeometry x="170" y="250" width="120" height="45" as="geometry" />
        </mxCell>
        <mxCell id="pkJhzEHzip6oLuLhZJ2v-8" value="Просмотр транзакций" style="ellipse;whiteSpace=wrap;html=1;" vertex="1" parent="pkJhzEHzip6oLuLhZJ2v-5">
          <mxGeometry x="25" y="140" width="120" height="45" as="geometry" />
        </mxCell>
        <mxCell id="pkJhzEHzip6oLuLhZJ2v-9" value="Редактирование&lt;br&gt;транзакций" style="ellipse;whiteSpace=wrap;html=1;" vertex="1" parent="pkJhzEHzip6oLuLhZJ2v-5">
          <mxGeometry x="30" y="195" width="120" height="45" as="geometry" />
        </mxCell>
        <mxCell id="pkJhzEHzip6oLuLhZJ2v-10" value="Регистрация" style="ellipse;whiteSpace=wrap;html=1;" vertex="1" parent="pkJhzEHzip6oLuLhZJ2v-5">
          <mxGeometry x="30" y="50" width="120" height="45" as="geometry" />
        </mxCell>
        <mxCell id="pkJhzEHzip6oLuLhZJ2v-11" value="Просмотр&lt;br&gt;профиля" style="ellipse;whiteSpace=wrap;html=1;" vertex="1" parent="pkJhzEHzip6oLuLhZJ2v-5">
          <mxGeometry x="25" y="250" width="120" height="45" as="geometry" />
        </mxCell>
        <mxCell id="pkJhzEHzip6oLuLhZJ2v-13" value="Экспорт в&lt;br&gt;.xls" style="ellipse;whiteSpace=wrap;html=1;" vertex="1" parent="pkJhzEHzip6oLuLhZJ2v-5">
          <mxGeometry x="25" y="370" width="120" height="45" as="geometry" />
        </mxCell>
        <mxCell id="pkJhzEHzip6oLuLhZJ2v-12" value="Отчеты" style="ellipse;whiteSpace=wrap;html=1;" vertex="1" parent="pkJhzEHzip6oLuLhZJ2v-5">
          <mxGeometry x="25" y="310" width="120" height="45" as="geometry" />
        </mxCell>
        <mxCell id="pkJhzEHzip6oLuLhZJ2v-15" value="" style="endArrow=none;html=1;rounded=0;exitX=1;exitY=0.3333333333333333;exitDx=0;exitDy=0;exitPerimeter=0;entryX=0;entryY=0.5;entryDx=0;entryDy=0;" edge="1" parent="1" source="pkJhzEHzip6oLuLhZJ2v-1" target="pkJhzEHzip6oLuLhZJ2v-10">
          <mxGeometry width="50" height="50" relative="1" as="geometry">
            <mxPoint x="340" y="320" as="sourcePoint" />
            <mxPoint x="390" y="270" as="targetPoint" />
          </mxGeometry>
        </mxCell>
        <mxCell id="pkJhzEHzip6oLuLhZJ2v-16" value="" style="endArrow=none;html=1;rounded=0;exitX=1;exitY=0.3333333333333333;exitDx=0;exitDy=0;exitPerimeter=0;entryX=0;entryY=0.5;entryDx=0;entryDy=0;" edge="1" parent="1" source="pkJhzEHzip6oLuLhZJ2v-2" target="pkJhzEHzip6oLuLhZJ2v-8">
          <mxGeometry width="50" height="50" relative="1" as="geometry">
            <mxPoint x="340" y="320" as="sourcePoint" />
            <mxPoint x="390" y="270" as="targetPoint" />
          </mxGeometry>
        </mxCell>
        <mxCell id="pkJhzEHzip6oLuLhZJ2v-17" value="" style="endArrow=none;html=1;rounded=0;exitX=1;exitY=0.3333333333333333;exitDx=0;exitDy=0;exitPerimeter=0;entryX=0;entryY=0.5;entryDx=0;entryDy=0;" edge="1" parent="1" source="pkJhzEHzip6oLuLhZJ2v-2" target="pkJhzEHzip6oLuLhZJ2v-9">
          <mxGeometry width="50" height="50" relative="1" as="geometry">
            <mxPoint x="340" y="320" as="sourcePoint" />
            <mxPoint x="390" y="270" as="targetPoint" />
          </mxGeometry>
        </mxCell>
        <mxCell id="pkJhzEHzip6oLuLhZJ2v-18" value="" style="endArrow=none;html=1;rounded=0;exitX=1;exitY=0.3333333333333333;exitDx=0;exitDy=0;exitPerimeter=0;entryX=0;entryY=0.5;entryDx=0;entryDy=0;" edge="1" parent="1" source="pkJhzEHzip6oLuLhZJ2v-2" target="pkJhzEHzip6oLuLhZJ2v-11">
          <mxGeometry width="50" height="50" relative="1" as="geometry">
            <mxPoint x="340" y="320" as="sourcePoint" />
            <mxPoint x="390" y="270" as="targetPoint" />
          </mxGeometry>
        </mxCell>
        <mxCell id="pkJhzEHzip6oLuLhZJ2v-19" value="" style="endArrow=none;html=1;rounded=0;exitX=1;exitY=0.3333333333333333;exitDx=0;exitDy=0;exitPerimeter=0;entryX=0;entryY=0.5;entryDx=0;entryDy=0;" edge="1" parent="1" source="pkJhzEHzip6oLuLhZJ2v-2" target="pkJhzEHzip6oLuLhZJ2v-12">
          <mxGeometry width="50" height="50" relative="1" as="geometry">
            <mxPoint x="340" y="320" as="sourcePoint" />
            <mxPoint x="390" y="270" as="targetPoint" />
          </mxGeometry>
        </mxCell>
        <mxCell id="pkJhzEHzip6oLuLhZJ2v-20" value="" style="endArrow=none;html=1;rounded=0;entryX=0;entryY=0.5;entryDx=0;entryDy=0;" edge="1" parent="1" target="pkJhzEHzip6oLuLhZJ2v-13">
          <mxGeometry width="50" height="50" relative="1" as="geometry">
            <mxPoint x="180" y="320" as="sourcePoint" />
            <mxPoint x="390" y="270" as="targetPoint" />
          </mxGeometry>
        </mxCell>
      </root>
    </mxGraphModel>
  </diagram>
</mxfile>
